<?xml version="1.0" encoding="UTF-8"?>
<svg version="1.1" xmlns="http://www.w3.org/2000/svg" width="270" height="601">
<path d="M0 0 C3.04472842 3.84853894 3.36459557 6.84779825 3.32470703 11.67041016 C3.32353882 12.31981064 3.32237061 12.96921112 3.32116699 13.63829041 C3.31401332 15.77221286 3.28583381 17.9053211 3.2578125 20.0390625 C3.24967087 21.52687872 3.2430096 23.01470371 3.23776245 24.50253296 C3.22067802 28.4108962 3.18644265 32.31891018 3.14770508 36.22711182 C3.08841034 42.48924216 3.05463818 48.75155085 3.02193832 55.01386642 C3.00797966 57.20037843 2.98638995 59.38671433 2.96365356 61.57315063 C2.95363071 62.91155883 2.94376501 64.24996821 2.93408203 65.58837891 C2.92281281 66.75688385 2.91154358 67.92538879 2.89993286 69.12930298 C2.86696979 72.07255363 2.86696979 72.07255363 4 75 C5.45903258 74.69078116 6.91720722 74.37751201 8.375 74.0625 C9.59316406 73.80146484 9.59316406 73.80146484 10.8359375 73.53515625 C13.029463 73.07669307 13.029463 73.07669307 15 72 C17.04055005 71.92934383 19.08334257 71.91578024 21.125 71.9375 C22.22070312 71.94652344 23.31640625 71.95554687 24.4453125 71.96484375 C25.28835937 71.97644531 26.13140625 71.98804687 27 72 C28.0625 73.8125 28.0625 73.8125 29 76 C28.67 76.99 28.34 77.98 28 79 C26.13671875 79.84375 26.13671875 79.84375 23.6875 80.5 C22.79675781 80.74363281 21.90601563 80.98726563 20.98828125 81.23828125 C20.00214844 81.48964844 19.01601562 81.74101563 18 82 C16.90042969 82.28230469 15.80085937 82.56460938 14.66796875 82.85546875 C11.78193097 83.58468114 8.8930278 84.29911182 6 85 C6.33 86.65 6.66 88.3 7 90 C7.85271484 89.89171875 7.85271484 89.89171875 8.72265625 89.78125 C16.70367779 88.82192855 22.67105852 88.41031438 30 92 C30.1875 94.375 30.1875 94.375 30 97 C26.77551853 99.14965431 26.20069035 99.22152284 22.55078125 98.9765625 C21.27944336 98.89921875 21.27944336 98.89921875 19.98242188 98.8203125 C19.10134766 98.75585938 18.22027344 98.69140625 17.3125 98.625 C15.97348633 98.53992188 15.97348633 98.53992188 14.60742188 98.453125 C12.40412587 98.31173702 10.20198461 98.16034022 8 98 C8 98.99 8 99.98 8 101 C8.65226563 101.17015625 9.30453125 101.3403125 9.9765625 101.515625 C15.21945467 102.96940631 19.86859588 104.29232964 24 108 C24.875 111.25 24.875 111.25 25 114 C22.95703125 115.2109375 22.95703125 115.2109375 20 116 C17.33596113 114.99768835 15.13961835 113.99879236 12.6875 112.625 C12.04232422 112.28210938 11.39714844 111.93921875 10.73242188 111.5859375 C9.14628793 110.7399994 7.57190267 109.87209756 6 109 C5.49809467 113.76469257 5.49809467 113.76469257 7.49609375 117.85546875 C8.13675781 118.29503906 8.77742187 118.73460938 9.4375 119.1875 C12.863559 121.58920197 12.863559 121.58920197 13.72265625 124.17578125 C13.81417969 124.77777344 13.90570313 125.37976563 14 126 C14.66 126 15.32 126 16 126 C25.94901804 142.62827454 28.19001929 161.97445808 28.11010742 181.09838867 C28.11064988 183.07952373 28.11123686 185.06065879 28.11186218 187.04179382 C28.11043402 188.07903784 28.10900585 189.11628185 28.10753441 190.1849575 C28.10395776 195.78285655 28.12991214 201.38066225 28.15039062 206.97851562 C28.17451392 214.0538767 28.19060892 221.12894955 28.17504883 228.2043457 C28.10929904 264.04305319 31.1082994 295.30821143 42.47436523 329.44580078 C43.06127506 332.29775184 42.75863424 334.21216825 42 337 C42.68964844 337.12375 43.37929687 337.2475 44.08984375 337.375 C51.67156862 339.03902741 57.07648111 341.88663071 62 348 C64.94234261 353.45767858 65.5158338 357.97641806 65.4375 364.125 C65.42992676 364.9617627 65.42235352 365.79852539 65.41455078 366.66064453 C65.12455437 377.68262479 61.30385467 386.64344093 56.578125 396.46484375 C54.47236023 401.18196532 52.80159553 406.01122526 51.18017578 410.91308594 C49.7405568 415.19005192 47.99921194 419.12717907 45.92822266 423.13549805 C44.65795058 425.68706771 43.70622107 428.31687222 42.75 431 C39.74548223 438.9689056 35.93665801 446.46117127 32 454 C31.43667969 455.08410156 30.87335938 456.16820312 30.29296875 457.28515625 C24.25213792 468.64803551 19.07948313 472.04892987 7 476 C6.96241577 476.98226562 6.96241577 476.98226562 6.92407227 477.984375 C6.80707345 480.98973236 6.68482365 483.99485485 6.5625 487 C6.52318359 488.02996094 6.48386719 489.05992187 6.44335938 490.12109375 C6.2386355 495.06596274 5.89414436 499.88579149 5.22045898 504.79199219 C2.72955075 529.73969327 5.33091448 551.22897554 21.390625 570.8984375 C26.04546774 576.97684866 28.89006741 583.04428515 28.5 590.796875 C27.70634982 594.29389611 25.81310681 595.92365926 23 598 C18.25047652 600.37476174 11.4570753 599.65949107 6.453125 598.31640625 C1.34432253 596.19361074 -3.30496126 593.15840373 -7 589 C-7 588.34 -7 587.68 -7 587 C-7.90105469 586.64421875 -7.90105469 586.64421875 -8.8203125 586.28125 C-11.51010849 584.70015128 -12.35710285 583.20991807 -13.875 580.5 C-16.14562882 576.48822329 -16.14562882 576.48822329 -18.578125 572.57421875 C-27.55337922 558.72603611 -29.76349352 541.08018234 -32 524.9921875 C-32.16757813 523.79223145 -32.33515625 522.59227539 -32.5078125 521.35595703 C-32.82910659 519.0020316 -33.13701762 516.64622965 -33.4296875 514.28857422 C-34.31155228 507.74517623 -35.4818541 502.63442524 -39 497 C-41.52673046 495.85908518 -41.52673046 495.85908518 -44 496 C-44.66 496 -45.32 496 -46 496 C-46 496.66 -46 497.32 -46 498 C-53.9360032 501.25579618 -61.94824333 500.55731152 -70 498 C-73.65484133 496.30046224 -77.09864452 494.30674257 -80.5625 492.25 C-81.45646484 491.73695313 -82.35042969 491.22390625 -83.27148438 490.6953125 C-88.14743466 487.85606127 -92.73608655 484.83196898 -97.20141602 481.38427734 C-99.79648535 479.3869863 -102.48876459 477.54135318 -105.1875 475.6875 C-105.7350293 475.30996582 -106.28255859 474.93243164 -106.84667969 474.54345703 C-109.69683037 472.57859274 -112.55258783 470.62202315 -115.41015625 468.66796875 C-155.25168247 441.3674289 -155.25168247 441.3674289 -160 420 C-160.88750158 412.89998737 -157.92685133 407.36590164 -155 401 C-154.34 401 -153.68 401 -153 401 C-153 400.34 -153 399.68 -153 399 C-154.1446875 397.9171875 -154.1446875 397.9171875 -155.3125 396.8125 C-167.69717308 383.85179561 -165.41389141 358.83582381 -165.10644531 342.21289062 C-164.7507783 331.47762012 -163.94924566 320.64419658 -162.453125 310.00390625 C-160.01722101 291.04642905 -162.69537739 271.91583131 -165.53027344 253.17773438 C-166.09862494 249.33279512 -166.55937083 245.48651382 -167 241.625 C-167.78899804 235.17337005 -168.84891475 228.78236128 -169.9375 222.375 C-181.72017349 152.41366276 -181.72017349 152.41366276 -169.3671875 133.5 C-168.28857808 132.01503075 -167.20921554 130.53060806 -166.12890625 129.046875 C-164.83801609 126.70629907 -164.74315905 125.55284898 -165.125 122.9375 C-165.41375 121.968125 -165.7025 120.99875 -166 120 C-167.58500588 120.9346695 -169.16793416 121.87286263 -170.75 122.8125 C-171.63171875 123.33457031 -172.5134375 123.85664062 -173.421875 124.39453125 C-175.99428853 125.92742115 -175.99428853 125.92742115 -178.15625 127.71875 C-180 129 -180 129 -182.75 128.6875 C-183.86375 128.3471875 -183.86375 128.3471875 -185 128 C-185.6875 126.3125 -185.6875 126.3125 -186 124 C-183.95081777 119.61801171 -181.49747488 117.73268644 -177.375 115.3125 C-173.53011283 113.28263298 -173.53011283 113.28263298 -171 110 C-172.25103516 110.2165625 -172.25103516 110.2165625 -173.52734375 110.4375 C-180.11643939 111.52436114 -186.32443581 112.22629031 -193 112 C-193.6875 109.6875 -193.6875 109.6875 -194 107 C-190.74079497 102.59566887 -185.08967123 101.99580524 -180 101 C-177.26755554 100.79506667 -174.74337208 100.84471479 -172 101 C-172 99.35 -172 97.7 -172 96 C-172.55461914 95.94465088 -173.10923828 95.88930176 -173.68066406 95.83227539 C-176.2040917 95.57871893 -178.72703883 95.32065495 -181.25 95.0625 C-182.12269531 94.97548828 -182.99539062 94.88847656 -183.89453125 94.79882812 C-184.73886719 94.71181641 -185.58320313 94.62480469 -186.453125 94.53515625 C-187.22817383 94.456604 -188.00322266 94.37805176 -188.80175781 94.29711914 C-190.92623038 94.00997086 -192.93296525 93.56205228 -195 93 C-195.33 90.69 -195.66 88.38 -196 86 C-189.29721786 82.64860893 -177.234987 84.98456323 -170 86 C-168.48458252 74.0404891 -169.90582377 63.01617687 -172.02734375 51.265625 C-173.96370703 40.33807867 -175.37331125 29.74375612 -175.375 18.625 C-175.3764502 17.60277344 -175.37790039 16.58054687 -175.37939453 15.52734375 C-175.2713264 8.4069896 -175.2713264 8.4069896 -173 5 C-166.43647304 3.92840376 -162.24998765 6.44176328 -157 10 C-153.69627801 12.45395661 -150.44582701 14.9643895 -147.2109375 17.5078125 C-143.66617149 20.28500277 -139.99286769 22.85361926 -136.28125 25.40234375 C-134.03068362 26.97851096 -131.85975275 28.6306252 -129.6875 30.3125 C-124.55034729 34.18720386 -124.55034729 34.18720386 -118.30932617 34.66259766 C-114.7007895 33.94009168 -111.21762783 32.95947404 -107.67578125 31.9609375 C-99.82412025 29.89694841 -92.38692984 29.44371737 -84.2980957 29.58837891 C-82.17025253 29.62529926 -80.04414907 29.62939318 -77.91601562 29.62890625 C-70.90111076 29.66574455 -64.14849514 30.05308415 -57.2644043 31.5390625 C-52.46079661 32.51687504 -48.50833482 32.99412977 -44.25 30.1875 C-43.13625 29.1046875 -43.13625 29.1046875 -42 28 C-38.25 25 -38.25 25 -36 25 C-35.67 24.01 -35.34 23.02 -35 22 C-33.44140625 20.61328125 -33.44140625 20.61328125 -31.5625 19.3125 C-30.94503906 18.87550781 -30.32757813 18.43851563 -29.69140625 17.98828125 C-28 17 -28 17 -26 17 C-25.79375 16.443125 -25.5875 15.88625 -25.375 15.3125 C-23.42316968 12.02987629 -21.05769006 10.29326754 -18 8 C-17.34 8 -16.68 8 -16 8 C-15.67 7.01 -15.34 6.02 -15 5 C-10.52023725 1.12118103 -6.00310552 -1.17707951 0 0 Z M-17.640625 28.3203125 C-18.43726563 29.21363281 -18.43726563 29.21363281 -19.25 30.125 C-22.39447905 33.48775092 -25.71731236 36.1210987 -29.49609375 38.73828125 C-29.99238281 39.15464844 -30.48867187 39.57101563 -31 40 C-31 40.66 -31 41.32 -31 42 C-27.52730561 44.69310993 -24.01708065 47.03939489 -20.1875 49.1875 C-17 51 -17 51 -15 53 C-14.01 53 -13.02 53 -12 53 C-12 44.42 -12 35.84 -12 27 C-15.83161515 26.58203034 -15.83161515 26.58203034 -17.640625 28.3203125 Z M-158 30 C-158.30470113 39.44573505 -157.14169926 48.6421436 -156 58 C-152.61874473 56.52356953 -150.30132056 54.58387568 -147.625 52.0625 C-144.2193595 48.96083403 -141.24959946 46.74342542 -137 45 C-138.28739233 41.137823 -139.73936378 40.68178301 -143.1875 38.625 C-146.49563508 36.60407701 -149.60074431 34.63880063 -152.5 32.0625 C-154.84552447 29.68180852 -154.84552447 29.68180852 -158 30 Z M-45 68 C-47.87346653 70.87346653 -49.30741701 72.9597754 -49.4375 77 C-49.26418429 80.66042778 -48.22175964 83.03765381 -46 86 C-43.06832781 85.68306247 -41.41017339 85.36774166 -39.1875 83.375 C-37.56204385 80.12408771 -37.73900039 77.58874459 -38 74 C-38.72268235 70.7014861 -38.72268235 70.7014861 -42.0625 69.3125 C-43.031875 68.879375 -44.00125 68.44625 -45 68 Z M-129.75 73.4375 C-131.56438802 77.15699544 -131.76381737 80.93379577 -131 85 C-129.76236762 86.84224027 -129.76236762 86.84224027 -128 88 C-124.91666667 88 -124.91666667 88 -122 87 C-119.54877495 83.32316242 -119.29502645 80.27282747 -120 76 C-121.58526981 73.41290128 -121.58526981 73.41290128 -124 72 C-127.86230064 71.57684038 -127.86230064 71.57684038 -129.75 73.4375 Z M-87 90 C-87.99 91.485 -87.99 91.485 -89 93 C-87.87890434 94.62493901 -87.87890434 94.62493901 -86 96 C-82.95788569 96.4167552 -82.95788569 96.4167552 -80 96 C-79.34 95.34 -78.68 94.68 -78 94 C-78.3185177 91.89179203 -78.3185177 91.89179203 -79 90 C-80.27875 89.938125 -81.5575 89.87625 -82.875 89.8125 C-83.59429687 89.77769531 -84.31359375 89.74289063 -85.0546875 89.70703125 C-86.01761719 89.85205078 -86.01761719 89.85205078 -87 90 Z M-47 109 C-47.93972656 109.53367187 -48.87945312 110.06734375 -49.84765625 110.6171875 C-56.17039367 114.14287316 -56.17039367 114.14287316 -60 120 C-60.66 120 -61.32 120 -62 120 C-66.81772363 126.46589223 -68.89248402 133.27636603 -71 141 C-77.75 142 -77.75 142 -80 142 C-80.16822266 141.17242187 -80.16822266 141.17242187 -80.33984375 140.328125 C-82.8254388 131.56235785 -88.38288168 124.98221357 -95 119 C-95.46535156 118.48566406 -95.93070313 117.97132812 -96.41015625 117.44140625 C-103.30747682 111.18806155 -114.40788595 108.57442224 -123.46484375 108.8203125 C-132.14788713 109.43575163 -138.55226028 112.5731192 -146 117 C-142.27022908 118.24325697 -141.48707396 117.54523342 -137.9375 116.0625 C-128.40578518 112.73856057 -116.80830611 112.11149072 -107.25 115.75 C-105.81285631 116.45997355 -104.3922599 117.20560916 -103 118 C-101.948125 118.556875 -100.89625 119.11375 -99.8125 119.6875 C-92.00662362 126.10566502 -85.49438192 135.88650622 -84 146 C-83.32766286 154.92775543 -83.65439177 163.00238225 -88 171 C-90.375 173.4375 -90.375 173.4375 -93 175 C-93.969375 175.70125 -94.93875 176.4025 -95.9375 177.125 C-102.76215976 181.30336312 -109.13647124 181.67825585 -117 181 C-120.8125 179.8125 -120.8125 179.8125 -124 178 C-124.85658203 177.54173828 -124.85658203 177.54173828 -125.73046875 177.07421875 C-133.59273314 172.30132094 -137.75383445 163.98565051 -139.9375 155.3125 C-140.3123626 153.54593193 -140.67449537 151.77632527 -141 150 C-142.32 149.67 -143.64 149.34 -145 149 C-145.66233797 160.02130388 -138.86994559 169.19508161 -133 178 C-132.34 178 -131.68 178 -131 178 C-129.98521049 191.40253537 -128.99994034 204.80527388 -128.140625 218.21875 C-126.4705598 243.79413936 -124.34604624 268.90909026 -119 294 C-118.74428223 295.20930176 -118.48856445 296.41860352 -118.22509766 297.66455078 C-115.68680516 309.42331583 -113.0037765 321.01451022 -108 332 C-107.63519531 332.84820312 -107.27039063 333.69640625 -106.89453125 334.5703125 C-101.76705102 345.73526945 -93.45531767 355.20830441 -85 364 C-84.40058594 364.64839844 -83.80117187 365.29679687 -83.18359375 365.96484375 C-75.86312265 373.19044913 -65.40680454 377.27469287 -55.1875 377.625 C-43.84015967 376.97301345 -36.75310065 372.06594506 -29 364 C-21.73685937 355.45921322 -16.92314695 346.2188545 -14.0625 335.4375 C-13.86342041 334.6954834 -13.66434082 333.9534668 -13.45922852 333.18896484 C-10.74608762 322.04445814 -10.84866197 310.46294585 -10.8671875 299.05859375 C-10.86507263 297.09947052 -10.86507263 297.09947052 -10.86291504 295.10076904 C-10.86003768 291.60136002 -10.86427281 288.10199878 -10.87102509 284.60259628 C-10.87502464 282.42407991 -10.8775225 280.24556602 -10.87969971 278.06704712 C-10.90072018 259.77194717 -10.99847315 241.47922383 -11.375 223.1875 C-11.39028748 222.33453339 -11.40557495 221.48156677 -11.42132568 220.60275269 C-11.62444085 209.79472791 -12.36102144 199.13602489 -13.54174805 188.39013672 C-14.60213169 178.619284 -14.7856248 171.37444543 -10.24609375 162.48828125 C-7.09727773 156.2005201 -6.7113956 149.92650564 -7 143 C-7.99 142.67 -8.98 142.34 -10 142 C-10.17015625 142.96679688 -10.3403125 143.93359375 -10.515625 144.9296875 C-14.57595861 167.10030741 -14.57595861 167.10030741 -22.84375 173.40625 C-30.71173567 178.25637815 -40.05746592 178.41668118 -49 177 C-55.83961943 174.75943502 -60.26546872 170.48115339 -63.8828125 164.33984375 C-67.92276571 155.87854314 -68.44176234 145.61257484 -66.125 136.59375 C-62.23990428 125.65413838 -56.44238106 117.39492541 -46 112 C-34.1899878 107.5203402 -21.50435087 109.65434301 -10 114 C-10 113.01 -10 112.02 -10 111 C-11.41478135 110.35004703 -12.83191487 109.70521278 -14.25 109.0625 C-15.03890625 108.70285156 -15.8278125 108.34320313 -16.640625 107.97265625 C-25.46533995 104.3346529 -38.63426462 104.18591485 -47 109 Z M37 350 C35.70366379 351.06645115 35.70366379 351.06645115 35.9375 353.5625 C35.958125 354.366875 35.97875 355.17125 36 356 C36.99 356.33 37.98 356.66 39 357 C39.66 355.35 40.32 353.7 41 352 C39.68 351.34 38.36 350.68 37 350 Z M47 353 C46.34 354.65 45.68 356.3 45 358 C45.99 358.99 46.98 359.98 48 361 C49.66621425 359.8354799 49.66621425 359.8354799 51 358 C50.76956136 355.34533951 50.76956136 355.34533951 50 353 C49.01 353 48.02 353 47 353 Z M27 355 C26.34 356.32 25.68 357.64 25 359 C26.32 359.33 27.64 359.66 29 360 C29.33 358.68 29.66 357.36 30 356 C29.01 355.67 28.02 355.34 27 355 Z M34 366.375 C32.9790625 367.03628906 32.9790625 367.03628906 31.9375 367.7109375 C30.29104654 368.80636017 28.6454328 369.9030448 27 371 C26.74969023 373.58380177 26.74969023 373.58380177 27 376 C30.14462649 377.52466739 32.07614814 377.9986871 35.625 377.9375 C39.5579829 378.01033302 39.45049529 378.45049529 42 381 C45.14921909 380.76716851 45.14921909 380.76716851 48 380 C47.46059411 374.71382228 46.39176094 370.69153106 44 366 C39.7372639 363.15817593 38.03347112 363.73185415 34 366.375 Z M53 364 C52.67 364.66 52.34 365.32 52 366 C52.33 366.66 52.66 367.32 53 368 C52.01 368.495 52.01 368.495 51 369 C51 369.66 51 370.32 51 371 C52.65 370.67 54.3 370.34 56 370 C56 368.02 56 366.04 56 364 C55.01 364 54.02 364 53 364 Z M6 391 C7 393 7 393 7 393 Z M5 395 C6 397 6 397 6 397 Z M4 398 C5 401 5 401 5 401 Z M-140 403 C-140.77242269 404.83700789 -140.77242269 404.83700789 -141 407 C-139.83333333 408.83333333 -139.83333333 408.83333333 -138 410 C-137.01 410 -136.02 410 -135 410 C-135.33 407.69 -135.66 405.38 -136 403 C-137.32 403 -138.64 403 -140 403 Z M-127 404 C-127.99 405.485 -127.99 405.485 -129 407 C-127.02 407.99 -127.02 407.99 -125 409 C-125 408.34 -125 407.68 -125 407 C-124.34 406.67 -123.68 406.34 -123 406 C-124.32 405.34 -125.64 404.68 -127 404 Z M2 404 C3 407 3 407 3 407 Z M-147 410 C-147.67958603 412.39719432 -147.67958603 412.39719432 -148 415 C-147.34 415.66 -146.68 416.32 -146 417 C-145.01 417 -144.02 417 -143 417 C-143.33 415.02 -143.66 413.04 -144 411 C-144.99 410.67 -145.98 410.34 -147 410 Z M-1 415 C0 417 0 417 0 417 Z M-136.0625 417.25 C-138.69003191 420.97940014 -138.51788061 423.87286437 -138.46875 428.34375 C-137.94290192 431.32355577 -136.9866937 432.75968583 -135 435 C-133.16531168 434.94436349 -133.16531168 434.94436349 -131 434 C-129.76912433 432.50999261 -128.54146892 431.01638373 -127.36328125 429.484375 C-125.31824366 427.25768651 -122.68918021 426.31471033 -120 425 C-118.59533047 422.94906855 -118.59533047 422.94906855 -118 421 C-123.53027894 416.60413725 -129.23024537 414.46132464 -136.0625 417.25 Z M-97 417 C-96.67 417.99 -96.34 418.98 -96 420 C-96 419.01 -96 418.02 -96 417 C-96.33 417 -96.66 417 -97 417 Z M-149 422 C-149.36980013 426.04622502 -149.36980013 426.04622502 -147 429 C-145.68 428.67 -144.36 428.34 -143 428 C-144.485 425.03 -144.485 425.03 -146 422 C-146.99 422 -147.98 422 -149 422 Z " fill="#DBB5AE" transform="translate(201,1)"/>
<path d="M0 0 C0.66 0.33 1.32 0.66 2 1 C-1.3 4.3 -4.6 7.6 -8 11 C-8 7.45459812 -7.40614728 6.93992636 -5.125 4.375 C-4.59132812 3.76398438 -4.05765625 3.15296875 -3.5078125 2.5234375 C-2 1 -2 1 0 0 Z " fill="#B49D95" transform="translate(149,116)"/>
</svg>
